<svg id="visual" viewBox="0 0 960 540" width="960" height="540" xmlns="http://www.w3.org/2000/svg" xmlns:xlink="http://www.w3.org/1999/xlink" version="1.1">
  <path d="M0 540L80 520C160 500 320 460 480 460C640 460 800 500 880 520L960 540L960 540L880 520C800 500 640 460 480 460C320 460 160 500 80 520L0 540Z" fill="#4B5945"></path>
  <path d="M0 460L80 440C160 420 320 380 480 380C640 380 800 420 880 440L960 460L960 540L880 520C800 500 640 460 480 460C320 460 160 500 80 520L0 540Z" fill="#66785F"></path>
  <path d="M0 380L80 360C160 340 320 300 480 300C640 300 800 340 880 360L960 380L960 460L880 440C800 420 640 380 480 380C320 380 160 420 80 440L0 460Z" fill="#91AC8F"></path>
  <path d="M0 300L80 280C160 260 320 220 480 220C640 220 800 260 880 280L960 300L960 380L880 360C800 340 640 300 480 300C320 300 160 340 80 360L0 380Z" fill="#B2C9AD"></path>
  <path d="M0 220L80 200C160 180 320 140 480 140C640 140 800 180 880 200L960 220L960 300L880 280C800 260 640 220 480 220C320 220 160 260 80 280L0 300Z" fill="#B2C9AD"></path>
</svg>



